PathFileType	4	(X/Y/Z)	/Users/itak/Documents/Research/Walk-IL/dataset/trc/00356_00011.trc
DataRate	CameraRate	NumFrames	NumMarkers	Units	OrigDataRate	OrigDataStartFrame	OrigNumFrames
100.000000	100.000000	4	54	mm	100.000000	364	729
Frame#	Time	RPSI			LPSI			STRN			T10			C7			CLAV			RBAK			LBAK			LSHO			LUPA			LAEL			LAOL			LWTS			LWPS			LFRA			LIFD			LHPS			LHTS			RSHO			RUPA			RAEL			RAOL			RWTS			RWPS			RFRA			RIFD			RHTS			RHPS			RBHD			LFHD			RFHD			LBHD			LHIP			RHIP			RASI			LASI			LKNE			LTHI			LANK			LTIP			LTOE			LMT1			LMT5			LHEE			RKNE			RANK			RTIP			RTOE			RMT1			RMT5			RHEE			L3			RTHI			*53			
		X1	Y1	Z1	X2	Y2	Z2	X3	Y3	Z3	X4	Y4	Z4	X5	Y5	Z5	X6	Y6	Z6	X7	Y7	Z7	X8	Y8	Z8	X9	Y9	Z9	X10	Y10	Z10	X11	Y11	Z11	X12	Y12	Z12	X13	Y13	Z13	X14	Y14	Z14	X15	Y15	Z15	X16	Y16	Z16	X17	Y17	Z17	X18	Y18	Z18	X19	Y19	Z19	X20	Y20	Z20	X21	Y21	Z21	X22	Y22	Z22	X23	Y23	Z23	X24	Y24	Z24	X25	Y25	Z25	X26	Y26	Z26	X27	Y27	Z27	X28	Y28	Z28	X29	Y29	Z29	X30	Y30	Z30	X31	Y31	Z31	X32	Y32	Z32	X33	Y33	Z33	X34	Y34	Z34	X35	Y35	Z35	X36	Y36	Z36	X37	Y37	Z37	X38	Y38	Z38	X39	Y39	Z39	X40	Y40	Z40	X41	Y41	Z41	X42	Y42	Z42	X43	Y43	Z43	X44	Y44	Z44	X45	Y45	Z45	X46	Y46	Z46	X47	Y47	Z47	X48	Y48	Z48	X49	Y49	Z49	X50	Y50	Z50	X51	Y51	Z51	X52	Y52	Z52	X53	Y53	Z53	X54	Y54	Z54	

365	3.64	-203.1647796630859	955.2928466796875	-462.4158020019531	-215.3631896972656	970.5420532226562	-591.3800659179688	32.45577621459961	1206.160034179688	-545.862548828125	-212.0550994873047	1148.9384765625	-549.662841796875	-160.9609375	1393.62353515625	-569.2034912109375	-7.969110488891602	1332.728881835938	-550.8549194335938	-218.7173614501953	1257.797973632812	-503.0136108398438	-164.2290954589844	1355.822387695312	-670.3596801757812	-74.93801879882812	1374.130615234375	-718.82275390625	-87.85684204101562	1262.244506835938	-797.1952514648438	-64.43341064453125	1065.887939453125	-848.8113403320312	-123.8609924316406	1039.7783203125	-795.6547241210938	48.70840072631836	829.4660034179688	-856.58154296875	1.474200010299683	824.2745361328125	-907.10888671875	-45.30907821655273	965.4047241210938	-875.9317626953125	59.70523071289062	670.8572998046875	-876.9931030273438	3.113451242446899	754.7028198242188	-914.0511474609375	61.81258773803711	754.7310180664062	-887.4534912109375	-116.5873489379883	1382.251220703125	-403.0064392089844	-143.4166870117188	1323.498413085938	-340.2969665527344	-198.4383392333984	1064.821411132812	-298.6004943847656	-211.75732421875	1055.585815429688	-392.0039367675781	-117.6110610961914	821.990478515625	-292.2481994628906	-175.9505767822266	817.6304321289062	-243.24853515625	-189.8356628417969	995.9016723632812	-278.2214965820312	-138.662353515625	650.4515380859375	-276.6959228515625	-112.8556060791016	719.1185302734375	-264.3358764648438	-174.6244354248047	732.3330078125	-235.8367309570312	-104.1249237060547	1599.4833984375	-478.5286560058594	84.12564086914062	1585.871459960938	-565.8983154296875	57.37858200073242	1585.116455078125	-468.7163696289062	-93.07666778564453	1600.472900390625	-622.4465942382812	-142.2422790527344	920.9493408203125	-708.2073974609375	-108.8098068237305	897.483154296875	-367.2262573242188	-11.85617351531982	931.3814697265625	-422.3862915039062	-15.00205993652344	939.200439453125	-662.0987548828125	-73.60726928710938	464.2905578613281	-742.8001098632812	-82.05315399169922	605.1515502929688	-740.3857421875	-189.5153350830078	41.00018310546875	-740.1832885742188	-128.9265441894531	247.2566070556641	-757.591064453125	26.26927185058594	39.43132400512695	-741.8856201171875	-24.19724082946777	30.36026763916016	-679.6375122070312	-72.20700073242188	34.22211456298828	-786.3566284179688	-199.6881866455078	38.99004745483398	-665.369873046875	68.425537109375	469.77978515625	-437.8862609863281	-262.08642578125	213.3253326416016	-438.1943054199219	5.321025371551514	367.74169921875	-448.8106079101562	-161.4338226318359	62.42039108276367	-516.78662109375	-207.4924011230469	104.0127944946289	-547.074951171875	-212.1712341308594	123.1693267822266	-431.5836791992188	-296.9379272460938	256.6947631835938	-478.9181823730469	-212.7212524414062	1031.011596679688	-531.9235229492188	14.61108207702637	705.391845703125	-392.9953002929688	nan	nan	nan	
366	3.65	-197.3077545166016	956.0174560546875	-465.7847595214844	-208.4348602294922	971.1610717773438	-594.8134155273438	39.50358963012695	1206.534912109375	-547.7155151367188	-205.0154876708984	1149.758666992188	-553.9302978515625	-153.1764221191406	1394.221801757812	-573.03076171875	-0.5527979135513306	1333.272094726562	-552.9569702148438	-211.9567718505859	1258.610473632812	-507.5946655273438	-155.3863525390625	1356.5029296875	-674.2120361328125	-65.59254455566406	1375.009521484375	-721.525634765625	-76.95388793945312	1263.362426757812	-800.4703369140625	-49.87324523925781	1067.871337890625	-853.4664916992188	-109.5372924804688	1040.38525390625	-801.260009765625	67.50748443603516	833.6921997070312	-861.6297607421875	21.04251289367676	828.1005249023438	-912.7996826171875	-28.66971778869629	967.96044921875	-881.21044921875	81.88368225097656	675.5338745117188	-883.6602783203125	24.22147941589355	758.7361450195312	-920.506103515625	82.48961639404297	759.5716552734375	-893.1365966796875	-110.9018707275391	1382.8720703125	-406.4443054199219	-139.0775299072266	1324.607299804688	-344.1881408691406	-197.8118743896484	1066.837036132812	-302.6364440917969	-209.6936950683594	1057.435913085938	-396.2186584472656	-118.3877563476562	823.5079956054688	-294.9681396484375	-177.2928314208984	819.1882934570312	-246.6857757568359	-190.0472869873047	997.7446899414062	-281.9932861328125	-139.7601623535156	651.9945678710938	-280.0264892578125	-114.035514831543	720.6102905273438	-267.2346496582031	-176.1327056884766	733.7616577148438	-239.4869842529297	-97.408203125	1599.952880859375	-481.8464660644531	92.07494354248047	1586.363647460938	-566.5296630859375	63.96982192993164	1585.653076171875	-469.7452697753906	-84.3038330078125	1600.8984375	-625.5780639648438	-134.9706268310547	921.117431640625	-711.1835327148438	-103.2005081176758	898.9360961914062	-369.9285888671875	-6.298423767089844	932.4851684570312	-425.0231323242188	-7.646105766296387	939.3894653320312	-664.7329711914062	-72.03870391845703	463.9766540527344	-743.6749267578125	-78.40159606933594	604.95166015625	-741.6954345703125	-189.4653625488281	41.16663360595703	-740.0430908203125	-128.2544403076172	247.1905975341797	-757.99609375	26.30439376831055	39.36265563964844	-741.8414916992188	-24.0303897857666	30.5250072479248	-679.6849975585938	-72.14322662353516	34.26167297363281	-786.298583984375	-199.4216918945312	39.03528213500977	-665.1984252929688	80.93161773681641	472.8829040527344	-439.3984375	-242.6985168457031	206.4119415283203	-451.2575378417969	20.13544082641602	369.1256103515625	-453.1864929199219	-133.2551879882812	61.23123931884766	-528.48779296875	-180.1229553222656	101.2370758056641	-559.7682495117188	-188.9158172607422	118.7926940917969	-444.1901245117188	-278.3072509765625	248.8934631347656	-492.2859497070312	-206.2504272460938	1031.881103515625	-535.689208984375	22.82258224487305	708.5610961914062	-394.6014099121094	nan	nan	nan	
367	3.66	-191.4608764648438	956.5712890625	-469.0756225585938	-201.4879760742188	971.6589965820312	-598.151123046875	46.58281707763672	1206.748413085938	-549.56640625	-197.9178314208984	1150.409423828125	-558.0276489257812	-145.3688812255859	1394.665771484375	-576.6828002929688	6.952868461608887	1333.679443359375	-555.014404296875	-205.0475616455078	1259.252563476562	-511.9755249023438	-146.5846862792969	1357.018676757812	-677.8779907226562	-56.32569122314453	1375.730102539062	-724.1063232421875	-66.19886779785156	1264.327514648438	-803.6024780273438	-35.51728820800781	1069.725341796875	-857.828369140625	-95.22850036621094	1040.870849609375	-806.4263916015625	86.23407745361328	837.9672241210938	-866.3118286132812	40.485107421875	831.883544921875	-918.0269775390625	-12.23318386077881	970.4088745117188	-886.1174926757812	104.1660232543945	680.3768920898438	-889.7236938476562	45.24625015258789	762.747802734375	-926.3792724609375	103.1324005126953	764.5130615234375	-898.3582153320312	-105.1175308227539	1383.289916992188	-409.7572937011719	-134.4997863769531	1325.513671875	-347.9569091796875	-196.8798370361328	1068.655639648438	-306.6539001464844	-207.3669891357422	1059.087280273438	-400.380859375	-118.9336090087891	824.8384399414062	-297.7068786621094	-178.4096832275391	820.6209106445312	-250.1269836425781	-189.9589385986328	999.4148559570312	-285.7709655761719	-140.7574920654297	653.3173828125	-283.1645812988281	-115.0678482055664	721.9113159179688	-270.0252685546875	-177.4784698486328	735.0966796875	-243.0608062744141	-90.66438293457031	1600.228759765625	-484.9884338378906	99.98446655273438	1586.740600585938	-567.0418090820312	70.56643676757812	1586.038208007812	-470.66748046875	-75.58308410644531	1601.177001953125	-628.5164794921875	-127.7114562988281	921.1730346679688	-714.0617065429688	-97.64563751220703	900.1353759765625	-372.5427551269531	-0.7368696928024292	933.3349609375	-427.4550476074219	-0.2760061919689178	939.3738403320312	-667.139404296875	-70.40001678466797	463.6378479003906	-744.5057983398438	-74.81492614746094	604.7075805664062	-742.921630859375	-189.4051513671875	41.3551139831543	-739.8764038085938	-127.5063552856445	247.0977783203125	-758.34814453125	26.35196495056152	39.28866958618164	-741.7813110351562	-23.92590713500977	30.61745071411133	-679.7203979492188	-72.06735992431641	34.30994415283203	-786.2135620117188	-199.1445922851562	39.06078720092773	-664.9961547851562	93.04313659667969	475.6730346679688	-440.6679382324219	-222.3543853759766	198.6622314453125	-463.7881164550781	34.86259460449219	370.1141967773438	-457.2599182128906	-104.0272750854492	59.74558258056641	-539.1395874023438	-151.7731475830078	97.85719299316406	-571.535400390625	-164.6396789550781	113.8344268798828	-455.9732360839844	-258.7715759277344	240.0368957519531	-505.2439270019531	-199.6488189697266	1032.56396484375	-539.3534545898438	30.84446334838867	711.4925537109375	-396.0422973632812	nan	nan	nan	
368	3.67	-185.6053619384766	956.9656372070312	-472.2918090820312	-194.5294189453125	972.025390625	-601.4022827148438	53.71330642700195	1206.7958984375	-551.3740844726562	-190.7603912353516	1150.89794921875	-561.9512329101562	-137.5287628173828	1394.955444335938	-580.1666259765625	14.5508918762207	1333.9375	-557.00244140625	-198.042724609375	1259.72705078125	-516.1697387695312	-137.8066864013672	1357.360717773438	-681.3681030273438	-47.103759765625	1376.2705078125	-726.5642700195312	-55.56132125854492	1265.118286132812	-806.5919189453125	-21.3639087677002	1071.420776367188	-861.91015625	-80.94969940185547	1041.21875	-811.1861572265625	104.8629684448242	842.2681274414062	-870.6201782226562	59.78004455566406	835.5919189453125	-922.7963256835938	3.985250234603882	972.7176513671875	-890.6708374023438	126.5239791870117	685.3682861328125	-895.17578125	66.15314483642578	766.702392578125	-931.6685180664062	123.7301025390625	769.5535278320312	-903.114013671875	-99.23558807373047	1383.506713867188	-412.9425048828125	-129.6919097900391	1326.206909179688	-351.593994140625	-195.6025543212891	1070.251220703125	-310.6534118652344	-204.7301940917969	1060.517456054688	-404.4994812011719	-119.2354354858398	825.9591064453125	-300.4337768554688	-179.298828125	821.9139404296875	-253.560546875	-189.5467071533203	1000.89599609375	-289.5552062988281	-141.6793060302734	654.3942260742188	-286.1183166503906	-115.9597930908203	723.0128173828125	-272.7014465332031	-178.6830596923828	736.3177490234375	-246.553466796875	-83.89617156982422	1600.309204101562	-487.9639282226562	107.8634414672852	1586.9970703125	-567.4445190429688	77.17061614990234	1586.260864257812	-471.48779296875	-66.90642547607422	1601.306762695312	-631.270263671875	-120.4383239746094	921.1024780273438	-716.837890625	-92.1343994140625	901.0881958007812	-375.0727233886719	4.849966049194336	933.9458618164062	-429.6950073242188	7.075980186462402	939.1343383789062	-669.3201904296875	-68.63697814941406	463.270263671875	-745.3123168945312	-71.24652862548828	604.4156494140625	-744.084716796875	-189.3303375244141	41.56265640258789	-739.6880493164062	-126.6550827026367	246.9713745117188	-758.6516723632812	26.41423225402832	39.20997619628906	-741.7052001953125	-23.89967155456543	30.60129547119141	-679.7235107421875	-71.98284149169922	34.36527633666992	-786.0988159179688	-198.8770751953125	39.07605743408203	-664.7661743164062	104.7570343017578	478.1324462890625	-441.72705078125	-201.0032501220703	190.1611480712891	-475.6940307617188	49.53205871582031	370.7057800292969	-461.0335998535156	-73.83953094482422	58.09439849853516	-548.7144775390625	-122.5397567749023	93.97050476074219	-582.2968139648438	-139.3651885986328	108.3526000976562	-466.8670959472656	-238.2511138916016	230.2248992919922	-517.6870727539062	-192.9409942626953	1033.061157226562	-542.9149169921875	38.64399337768555	714.1461791992188	-397.3241882324219	nan	nan	nan	
